<svg xmlns="http://www.w3.org/2000/svg">
  <symbol id="chat" viewBox="0 0 24 24"><path d="M4 4h16v12H9l-5 4V4Z"/></symbol>
  <symbol id="search" viewBox="0 0 24 24"><circle cx="10.5" cy="10.5" r="6.5"/><path d="m15.5 15.5 5 5"/></symbol>
  <symbol id="sparkles" viewBox="0 0 24 24"><path d="m12 2 1.4 5.6L19 9l-5.6 1.4L12 16l-1.4-5.6L5 9l5.6-1.4L12 2ZM19 15l.7 2.3L22 18l-2.3.7L19 21l-.7-2.3L16 18l2.3-.7L19 15Z"/></symbol>
  <symbol id="user" viewBox="0 0 24 24"><circle cx="12" cy="8" r="4"/><path d="M4 21c.7-4.3 3.3-6.5 8-6.5s7.3 2.2 8 6.5"/></symbol>
  <symbol id="bell" viewBox="0 0 24 24"><path d="M5 17h14l-2-3V9a5 5 0 0 0-10 0v5l-2 3Z"/><path d="M10 20h4"/></symbol>
  <symbol id="logout" viewBox="0 0 24 24"><path d="M10 4H4v16h6M14 8l4 4-4 4M8 12h10"/></symbol>
  <symbol id="image" viewBox="0 0 24 24"><rect x="3" y="4" width="18" height="16" rx="2"/><circle cx="9" cy="9" r="2"/><path d="m4 17 5-5 4 4 2-2 5 5"/></symbol>
  <symbol id="paperclip" viewBox="0 0 24 24"><path d="m8 12 6.5-6.5a4 4 0 0 1 5.7 5.7L11 20.4a6 6 0 0 1-8.5-8.5l9-9"/></symbol>
  <symbol id="mic" viewBox="0 0 24 24"><rect x="9" y="3" width="6" height="12" rx="3"/><path d="M5 11a7 7 0 0 0 14 0M12 18v3M8 21h8"/></symbol>
  <symbol id="send" viewBox="0 0 24 24"><path d="m3 3 18 9-18 9 3-9-3-9Z"/><path d="M6 12h15"/></symbol>
  <symbol id="arrow-left" viewBox="0 0 24 24"><path d="m15 5-7 7 7 7M8 12h12"/></symbol>
</svg>
